# xmcd CD database file
#
# Track frame offsets:
#	150
#	33404
#	70873
#	109559
#	139749
#	173096
#	201950
#	236425
#	278392
#
# Disc length: 4090 seconds
#
# Revision: 3
# Processed by: cddbd v1.5.2PL0 Copyright (c) Steve Scherf et al.
# Submitted via: CDex 1.51
#
DISCID=730ff809
DTITLE=John Swana Quartet (J.Swana, tr/Jesse van Ruller, gu/John Patitucci, b/Eric Harland, dr) - On Target
DYEAR=2002
DGENRE=Jazz
TTITLE0=Through My Eyes (J. Swana)
TTITLE1=Mud Puppy (J. Swana)
TTITLE2=Sweet Sadness (J. Swana)
TTITLE3=On Target (J. Swana)
TTITLE4=View From Above (J. Swana)
TTITLE5=When Love Was You And Me (A. Lincoln)
TTITLE6=Jitterbug Waltz (F. Waller)
TTITLE7=Suspended Sentence (J. Swana)
TTITLE8=Philly Jazz (J. Swana)
EXTD=YEAR: 2002
EXTT0=
EXTT1=
EXTT2=
EXTT3=
EXTT4=
EXTT5=
EXTT6=
EXTT7=
EXTT8=
PLAYORDER=
